<svg xmlns="http://www.w3.org/2000/svg" viewBox="0 0 512 512">
  <defs>
    <linearGradient id="bg" x1="0%" y1="0%" x2="100%" y2="100%">
      <stop offset="0%" style="stop-color:#7b2ff7"/>
      <stop offset="100%" style="stop-color:#4D96FF"/>
    </linearGradient>
  </defs>
  <!-- Background rounded square -->
  <rect width="512" height="512" rx="96" ry="96" fill="url(#bg)"/>
  <!-- Buku -->
  <rect x="120" y="140" width="272" height="200" rx="16" fill="#fff" opacity="0.15"/>
  <rect x="136" y="156" width="120" height="168" rx="10" fill="#fff" opacity="0.9"/>
  <rect x="256" y="156" width="120" height="168" rx="10" fill="#fff" opacity="0.75"/>
  <!-- Spine buku -->
  <rect x="248" y="156" width="16" height="168" fill="#7b2ff7" opacity="0.5"/>
  <!-- Garis teks -->
  <rect x="152" y="190" width="88" height="10" rx="5" fill="#7b2ff7" opacity="0.5"/>
  <rect x="152" y="212" width="72" height="10" rx="5" fill="#7b2ff7" opacity="0.4"/>
  <rect x="152" y="234" width="80" height="10" rx="5" fill="#7b2ff7" opacity="0.4"/>
  <rect x="152" y="256" width="64" height="10" rx="5" fill="#7b2ff7" opacity="0.3"/>
  <rect x="272" y="190" width="88" height="10" rx="5" fill="#4D96FF" opacity="0.5"/>
  <rect x="272" y="212" width="72" height="10" rx="5" fill="#4D96FF" opacity="0.4"/>
  <rect x="272" y="234" width="80" height="10" rx="5" fill="#4D96FF" opacity="0.4"/>
  <!-- Bintang -->
  <text x="256" y="400" font-size="72" text-anchor="middle" font-family="serif">⭐</text>
  <!-- Teks KB -->
  <text x="256" y="460" font-size="40" font-weight="bold" text-anchor="middle" font-family="Arial,sans-serif" fill="#fff" opacity="0.9">KitaBelajar</text>
</svg>
